<?xml version="1.0" encoding="UTF-8"?>
<svg id="Layer_1" data-name="Layer 1" xmlns="http://www.w3.org/2000/svg" viewBox="0 0 120 30">
  <defs>
    <style>
      .cls-1 {
        fill: #fff;
        stroke-width: 0px;
      }
    </style>
  </defs>
  <path class="cls-1" d="m5.26,24.1h-2.46V5.6h2.46v11.36l4.77-4.99h3.04l-4.66,4.89,5.02,7.25h-2.79l-3.83-5.58-1.55,1.62v3.95Z"/>
  <path class="cls-1" d="m17.93,5.6v18.51h-2.46V5.6h2.46Z"/>
  <path class="cls-1" d="m26.04,24.4c-.85,0-1.63-.16-2.37-.49-.74-.33-1.38-.78-1.93-1.36-.55-.58-.98-1.25-1.31-2.03s-.48-1.61-.48-2.48.16-1.71.48-2.48c.32-.78.76-1.45,1.31-2.03.55-.57,1.19-1.03,1.93-1.36.74-.33,1.52-.49,2.37-.49s1.61.17,2.36.49c.74.33,1.39.78,1.94,1.36.55.57.98,1.25,1.31,2.03.32.78.48,1.61.48,2.48s-.16,1.71-.48,2.48c-.32.78-.76,1.45-1.31,2.03-.55.57-1.2,1.03-1.94,1.36-.74.33-1.53.49-2.36.49Zm-.01-10.54c-.49,0-.96.11-1.4.33s-.83.52-1.16.89c-.33.37-.59.81-.78,1.32-.19.51-.28,1.05-.28,1.63s.09,1.12.28,1.63c.19.51.45.95.78,1.33.33.38.72.68,1.16.9.44.22.91.33,1.4.33s.96-.11,1.4-.33c.44-.22.82-.52,1.15-.9.32-.38.58-.83.76-1.33.19-.51.28-1.05.28-1.63s-.09-1.12-.28-1.63c-.19-.51-.44-.95-.76-1.32-.32-.37-.7-.67-1.15-.89-.44-.22-.91-.33-1.4-.33Z"/>
  <path class="cls-1" d="m39.76,21.57c.15-.13.29-.29.41-.46.12-.17.18-.36.18-.58,0-.27-.1-.5-.29-.68-.19-.19-.43-.34-.71-.47s-.57-.22-.88-.29c-.3-.07-.56-.13-.76-.18-.56-.14-1.08-.3-1.57-.5-.49-.19-.92-.43-1.28-.71-.36-.28-.65-.61-.86-.99-.21-.38-.32-.83-.32-1.36,0-.49.12-.95.35-1.38.23-.43.55-.81.94-1.14.39-.33.86-.59,1.39-.79s1.09-.29,1.68-.29c.52,0,1.02.08,1.5.23.47.15.9.36,1.28.63.38.27.7.58.96.96.26.38.43.79.52,1.25l-2.21.53c-.1-.41-.32-.74-.66-1.01-.34-.27-.8-.41-1.39-.41-.2,0-.41.03-.63.09s-.42.15-.61.27-.34.26-.47.43c-.13.17-.19.36-.19.58,0,.24.07.44.22.61.14.17.32.31.52.42s.42.2.66.27c.24.07.46.13.66.18.9.22,1.64.46,2.23.71.59.25,1.06.53,1.42.83.35.3.6.64.75,1,.14.36.21.77.21,1.23,0,.54-.12,1.04-.37,1.52-.25.47-.58.88-1.01,1.23-.43.35-.94.62-1.54.81-.6.19-1.24.29-1.93.29-1.04,0-1.98-.26-2.79-.77-.82-.52-1.37-1.2-1.66-2.07l2.08-.94c.27.59.62.99,1.04,1.2.42.21.9.32,1.44.32.68,0,1.24-.19,1.7-.56Z"/>
  <path class="cls-1" d="m47.59,24.1h-2.46V5.6h2.46v11.36l4.77-4.99h3.04l-4.66,4.89,5.02,7.25h-2.79l-3.83-5.58-1.55,1.62v3.95Z"/>
  <path class="cls-1" d="m63,24.4c-.85,0-1.63-.16-2.37-.49-.74-.33-1.38-.78-1.93-1.36-.55-.58-.98-1.25-1.31-2.03s-.48-1.61-.48-2.48.16-1.71.48-2.48c.32-.78.76-1.45,1.31-2.03.55-.57,1.19-1.03,1.93-1.36.74-.33,1.52-.49,2.37-.49s1.61.17,2.36.49c.74.33,1.39.78,1.94,1.36.55.57.98,1.25,1.31,2.03.32.78.48,1.61.48,2.48s-.16,1.71-.48,2.48c-.32.78-.76,1.45-1.31,2.03-.55.57-1.2,1.03-1.94,1.36-.74.33-1.53.49-2.36.49Zm-.01-10.54c-.49,0-.96.11-1.4.33s-.83.52-1.16.89c-.33.37-.59.81-.78,1.32-.19.51-.28,1.05-.28,1.63s.09,1.12.28,1.63c.19.51.45.95.78,1.33.33.38.72.68,1.16.9.44.22.91.33,1.4.33s.96-.11,1.4-.33c.44-.22.82-.52,1.15-.9.32-.38.58-.83.76-1.33.19-.51.28-1.05.28-1.63s-.09-1.12-.28-1.63c-.19-.51-.44-.95-.76-1.32-.32-.37-.7-.67-1.15-.89-.44-.22-.91-.33-1.4-.33Z"/>
  <path class="cls-1" d="m74.08,24.1l-4.08-12.14h2.61l2.84,9.18,2.99-9.18h2.18l2.99,9.1,2.81-9.1h2.61l-4.08,12.14h-2.69l-2.54-7.43-.2-1.17-.2,1.17-2.51,7.43h-2.74Z"/>
  <path class="cls-1" d="m96.39,21.57c.15-.13.29-.29.41-.46.12-.17.18-.36.18-.58,0-.27-.1-.5-.29-.68-.19-.19-.43-.34-.71-.47s-.57-.22-.88-.29c-.3-.07-.56-.13-.76-.18-.56-.14-1.08-.3-1.57-.5-.49-.19-.92-.43-1.28-.71-.36-.28-.65-.61-.86-.99-.21-.38-.32-.83-.32-1.36,0-.49.12-.95.35-1.38.23-.43.55-.81.94-1.14.39-.33.86-.59,1.39-.79s1.09-.29,1.68-.29c.52,0,1.02.08,1.5.23.47.15.9.36,1.28.63.38.27.7.58.96.96.26.38.43.79.52,1.25l-2.21.53c-.1-.41-.32-.74-.66-1.01-.34-.27-.8-.41-1.39-.41-.2,0-.41.03-.63.09s-.42.15-.61.27-.34.26-.47.43c-.13.17-.19.36-.19.58,0,.24.07.44.22.61.14.17.32.31.52.42s.42.2.66.27c.24.07.46.13.66.18.9.22,1.64.46,2.23.71.59.25,1.06.53,1.42.83.35.3.6.64.75,1,.14.36.21.77.21,1.23,0,.54-.12,1.04-.37,1.52-.25.47-.58.88-1.01,1.23-.43.35-.94.62-1.54.81-.6.19-1.24.29-1.93.29-1.04,0-1.98-.26-2.79-.77-.82-.52-1.37-1.2-1.66-2.07l2.08-.94c.27.59.62.99,1.04,1.2.42.21.9.32,1.44.32.68,0,1.24-.19,1.7-.56Z"/>
  <path class="cls-1" d="m104.22,24.1h-2.46V5.6h2.46v11.36l4.77-4.99h3.04l-4.66,4.89,5.02,7.25h-2.79l-3.83-5.58-1.55,1.62v3.95Z"/>
  <path class="cls-1" d="m115.63,9.32c-.44,0-.81-.16-1.12-.47-.3-.31-.46-.69-.46-1.13s.15-.81.46-1.12c.3-.3.68-.46,1.12-.46s.81.15,1.12.46c.3.3.46.68.46,1.12s-.15.82-.46,1.13c-.3.31-.68.47-1.12.47Zm1.27,14.78h-2.48v-12.14h2.46l.03,12.14Z"/>
</svg>