<?xml version="1.0" encoding="UTF-8"?>
<svg id="Layer_1" data-name="Layer 1" xmlns="http://www.w3.org/2000/svg" viewBox="0 0 120 30">
  <defs>
    <style>
      .cls-1 {
        fill: #fff;
        stroke-width: 0px;
      }
    </style>
  </defs>
  <g>
    <path class="cls-1" d="m3.25,28.76H1.07V12.39h2.17v10.05l4.22-4.42h2.69l-4.13,4.33,4.44,6.41h-2.47l-3.39-4.93-1.37,1.44v3.5Z"/>
    <path class="cls-1" d="m14.46,12.39v16.37h-2.17V12.39h2.17Z"/>
    <path class="cls-1" d="m21.63,29.03c-.75,0-1.45-.15-2.1-.44-.65-.29-1.22-.69-1.7-1.2-.49-.51-.87-1.11-1.16-1.79-.28-.69-.43-1.42-.43-2.2s.14-1.51.43-2.2.67-1.29,1.16-1.79c.49-.51,1.05-.91,1.7-1.2.65-.29,1.35-.44,2.1-.44s1.43.15,2.08.44c.66.29,1.23.69,1.72,1.2.49.51.87,1.11,1.15,1.79s.43,1.42.43,2.2-.14,1.51-.43,2.2c-.28.69-.67,1.29-1.15,1.79-.49.51-1.06.91-1.72,1.2-.66.29-1.35.44-2.08.44Zm-.01-9.33c-.43,0-.85.1-1.24.29-.39.2-.73.46-1.02.79-.29.33-.52.72-.69,1.17s-.25.93-.25,1.44.08.99.25,1.44.39.84.69,1.18c.29.34.63.6,1.02.8.39.19.8.29,1.24.29s.85-.1,1.24-.29c.39-.2.73-.46,1.01-.8.29-.34.51-.73.68-1.18s.25-.93.25-1.44-.08-.99-.25-1.44-.39-.84-.68-1.17-.62-.59-1.01-.79c-.39-.19-.8-.29-1.24-.29Z"/>
    <path class="cls-1" d="m33.76,26.52c.13-.12.25-.25.36-.4.1-.15.16-.32.16-.52,0-.24-.09-.44-.26-.61-.17-.16-.38-.3-.63-.41-.25-.11-.5-.2-.77-.26-.27-.06-.49-.11-.67-.16-.49-.12-.96-.27-1.39-.44s-.81-.38-1.13-.63c-.32-.25-.58-.54-.76-.87-.19-.34-.28-.74-.28-1.2,0-.43.1-.84.31-1.22.21-.38.48-.72.83-1.01.35-.29.76-.52,1.22-.7.47-.17.97-.26,1.49-.26.46,0,.9.07,1.32.2.42.14.8.32,1.13.56.34.23.62.52.85.85.23.33.38.7.46,1.1l-1.95.47c-.09-.36-.28-.66-.58-.9-.3-.24-.71-.36-1.23-.36-.18,0-.37.03-.56.08-.19.05-.37.13-.54.23-.17.1-.3.23-.42.38s-.17.32-.17.51c0,.21.06.39.19.54s.28.27.46.37c.18.1.37.18.58.24.21.06.4.11.58.16.79.19,1.45.4,1.97.63.52.22.94.47,1.26.74.31.27.53.56.66.88.13.32.19.68.19,1.08,0,.48-.11.92-.33,1.34-.22.42-.51.78-.89,1.08-.38.31-.83.54-1.36.72-.53.17-1.1.26-1.71.26-.92,0-1.75-.23-2.47-.68-.72-.46-1.21-1.06-1.46-1.83l1.84-.83c.24.52.54.88.92,1.07.37.19.8.28,1.28.28.6,0,1.1-.16,1.5-.49Z"/>
    <path class="cls-1" d="m40.69,28.76h-2.17V12.39h2.17v10.05l4.22-4.42h2.69l-4.13,4.33,4.44,6.41h-2.47l-3.39-4.93-1.37,1.44v3.5Z"/>
    <path class="cls-1" d="m54.33,29.03c-.75,0-1.45-.15-2.1-.44-.65-.29-1.22-.69-1.7-1.2-.49-.51-.87-1.11-1.16-1.79-.28-.69-.43-1.42-.43-2.2s.14-1.51.43-2.2.67-1.29,1.16-1.79c.49-.51,1.05-.91,1.7-1.2.65-.29,1.35-.44,2.1-.44s1.43.15,2.08.44c.66.29,1.23.69,1.72,1.2.49.51.87,1.11,1.15,1.79s.43,1.42.43,2.2-.14,1.51-.43,2.2c-.28.69-.67,1.29-1.15,1.79-.49.51-1.06.91-1.72,1.2-.66.29-1.35.44-2.08.44Zm-.01-9.33c-.43,0-.85.1-1.24.29-.39.2-.73.46-1.02.79-.29.33-.52.72-.69,1.17s-.25.93-.25,1.44.08.99.25,1.44.39.84.69,1.18c.29.34.63.6,1.02.8.39.19.8.29,1.24.29s.85-.1,1.24-.29c.39-.2.73-.46,1.01-.8.29-.34.51-.73.68-1.18s.25-.93.25-1.44-.08-.99-.25-1.44-.39-.84-.68-1.17-.62-.59-1.01-.79c-.39-.19-.8-.29-1.24-.29Z"/>
    <path class="cls-1" d="m64.12,28.76l-3.61-10.74h2.31l2.51,8.12,2.65-8.12h1.93l2.65,8.05,2.49-8.05h2.31l-3.61,10.74h-2.38l-2.24-6.57-.18-1.03-.18,1.03-2.22,6.57h-2.42Z"/>
    <path class="cls-1" d="m83.86,26.52c.13-.12.25-.25.36-.4.1-.15.16-.32.16-.52,0-.24-.09-.44-.26-.61-.17-.16-.38-.3-.63-.41-.25-.11-.5-.2-.77-.26-.27-.06-.49-.11-.67-.16-.49-.12-.96-.27-1.39-.44s-.81-.38-1.13-.63c-.32-.25-.58-.54-.76-.87-.19-.34-.28-.74-.28-1.2,0-.43.1-.84.31-1.22.21-.38.48-.72.83-1.01.35-.29.76-.52,1.22-.7.47-.17.97-.26,1.49-.26.46,0,.9.07,1.32.2.42.14.8.32,1.13.56.34.23.62.52.85.85.23.33.38.7.46,1.1l-1.95.47c-.09-.36-.28-.66-.58-.9-.3-.24-.71-.36-1.23-.36-.18,0-.37.03-.56.08-.19.05-.37.13-.54.23-.17.1-.3.23-.42.38s-.17.32-.17.51c0,.21.06.39.19.54s.28.27.46.37c.18.1.37.18.58.24.21.06.4.11.58.16.79.19,1.45.4,1.97.63.52.22.94.47,1.26.74.31.27.53.56.66.88.13.32.19.68.19,1.08,0,.48-.11.92-.33,1.34-.22.42-.51.78-.89,1.08-.38.31-.83.54-1.36.72-.53.17-1.1.26-1.71.26-.92,0-1.75-.23-2.47-.68-.72-.46-1.21-1.06-1.46-1.83l1.84-.83c.24.52.54.88.92,1.07.37.19.8.28,1.28.28.6,0,1.1-.16,1.5-.49Z"/>
    <path class="cls-1" d="m90.79,28.76h-2.17V12.39h2.17v10.05l4.22-4.42h2.69l-4.13,4.33,4.44,6.41h-2.47l-3.39-4.93-1.37,1.44v3.5Z"/>
    <path class="cls-1" d="m100.88,15.69c-.39,0-.72-.14-.99-.42-.27-.28-.4-.61-.4-1s.13-.72.4-.99c.27-.27.6-.4.99-.4s.72.13.99.4c.27.27.4.6.4.99s-.13.72-.4,1c-.27.28-.6.42-.99.42Zm1.12,13.07h-2.2v-10.74h2.17l.02,10.74Z"/>
  </g>
  <path class="cls-1" d="m112.79,8.25h6.95v2.18h-6.95v7.25h-2.58v-7.25h-7.12v-2.18h7.12V1h2.58v7.25Z"/>
</svg>