<?xml version="1.0" encoding="UTF-8"?>
<svg id="Layer_1" data-name="Layer 1" xmlns="http://www.w3.org/2000/svg" viewBox="0 0 16 16">
  <defs>
    <style>
      .cls-1 {
        fill: #231f20;
      }

      .cls-1, .cls-2 {
        stroke-width: 0px;
      }

      .cls-2 {
        fill: #fff;
      }
    </style>
  </defs>
  <g>
    <rect class="cls-1" x=".25" y=".25" width="15.5" height="15.5" rx="1.75" ry="1.75"/>
    <path class="cls-2" d="m14,.5c.83,0,1.5.67,1.5,1.5v11.99c0,.83-.67,1.5-1.5,1.5H2c-.83,0-1.5-.67-1.5-1.5V2c0-.83.67-1.5,1.5-1.5h11.99m0-.5H2C.9,0,0,.9,0,2v11.99C0,15.1.9,16,2,16h11.99c1.11,0,2-.9,2-2V2c0-1.11-.9-2-2-2h0Z"/>
  </g>
  <path class="cls-2" d="m14,5.02l-1.45,1.98h-.02c-4.04,0-7.73,1.5-10.53,3.98l1.42-1.94,1.47-2.01,1.47-2.01h2.54l-1.47,2.01h2.54l1.47-2.01h2.55Zm-6.88,5.96h2.54l1.47-2.01h-2.54s-1.47,2.01-1.47,2.01Z"/>
</svg>