<?xml version="1.0" encoding="utf-8"?>
<!-- Generator: Adobe Illustrator 27.8.1, SVG Export Plug-In . SVG Version: 6.00 Build 0)  -->
<svg version="1.1" id="Layer_1" xmlns="http://www.w3.org/2000/svg" xmlns:xlink="http://www.w3.org/1999/xlink" x="0px" y="0px"
	 viewBox="0 0 60 30" style="enable-background:new 0 0 60 30;" xml:space="preserve">
<style type="text/css">
	.st0{fill:#FFFFFF;}
</style>
<g>
	<text id="XMLID_2_" transform="matrix(1 0 0 1 -5687.52 53.6057)"><tspan x="0" y="0" style="font-family:'Kollektif'; font-size:147.4407px;">LUMA </tspan><tspan x="-472.8" y="127.1" style="font-family:'Kollektif'; font-size:147.4407px;">  KOLLEKTIV </tspan></text>
	<text id="XMLID_3_" transform="matrix(1 0 0 1 -5292.5962 -51.0926)" style="font-family:'Kollektif'; font-size:217.6302px;">+</text>
	<g>
		
			<text id="XMLID_00000031192251139501842030000008256345355324874628_" transform="matrix(1 0 0 1 -5098.04 95.6057)" style="font-family:'Kollektif'; font-size:147.4407px;">luma kollektiv</text>
		
			<text id="XMLID_00000172401937955976655100000004523436202960657589_" transform="matrix(1 0 0 1 -4232.5962 31.9074)" style="font-family:'Kollektif'; font-size:217.6302px;">+</text>
	</g>
</g>
<g>
	<g id="XMLID_00000008827765655824766540000009241758664837186205_">
		<path class="st0" d="M-3034.7-12V95.6h-14.3V-12H-3034.7z"/>
		<path class="st0" d="M-2970.8,89.3c-2.5,2.3-5.3,4.1-8.6,5.6c-3.3,1.5-7,2.2-11,2.2c-2.6,0-5.5-0.4-8.7-1.1s-6.3-2.2-9.1-4.3
			c-2.8-2.2-5.2-5.1-7.1-8.9c-1.9-3.8-2.9-8.7-2.9-14.8V25h13.6v42.9c0,3,0.5,5.6,1.4,7.7c0.9,2.1,2.2,3.8,3.7,5.1
			c1.5,1.3,3.3,2.2,5.2,2.8c2,0.6,4,0.9,6,0.9c1.6,0,3.4-0.3,5.4-0.9c2-0.6,3.9-1.5,5.7-2.9c1.8-1.3,3.3-3,4.5-5.1
			c1.2-2.1,1.8-4.6,1.8-7.5V25h14.3v70.6h-11.4L-2970.8,89.3z"/>
		<path class="st0" d="M-2925.3,95.6h-14.3V25h11.4l2.9,6c1.8-2.1,3.9-3.9,6.3-5.4c2.5-1.5,5.5-2.3,9-2.3c1.4,0,2.9,0.2,4.6,0.5
			c1.7,0.3,3.5,0.9,5.3,1.8c1.8,0.8,3.6,2,5.2,3.4c1.7,1.4,3.1,3.3,4.3,5.5c1.7-3,4.2-5.7,7.6-7.9c3.4-2.2,7-3.3,10.8-3.3
			c2.6,0,5.3,0.4,8.1,1.2c2.9,0.8,5.5,2.3,8,4.4c2.5,2.2,4.5,5.2,6,9c1.6,3.8,2.4,8.8,2.4,14.9v42.8h-13.4V52.7
			c0-6.1-1.3-10.3-3.8-12.8c-2.5-2.4-5.8-3.6-10-3.6c-3.1,0-5.9,1.3-8.3,4s-3.5,6.8-3.5,12.5v42.8h-13.4V52.7
			c0-6.1-1.3-10.3-3.8-12.8c-2.5-2.4-5.8-3.6-10-3.6c-2.9,0-5.5,1.1-7.7,3.4c-2.2,2.3-3.5,5.8-3.9,10.6V95.6z"/>
		<path class="st0" d="M-2763.9,25v70.6h-12.1l-2.2-8.1c-2.5,3.2-5.6,5.7-9.4,7.4c-3.8,1.7-7.7,2.5-11.6,2.5c-4.9,0-9.5-1-13.8-2.9
			s-8-4.5-11.2-7.9c-3.2-3.3-5.7-7.3-7.6-11.8c-1.9-4.5-2.8-9.3-2.8-14.4c0-5.1,0.9-9.9,2.8-14.4c1.9-4.5,4.4-8.5,7.6-11.8
			c3.2-3.3,6.9-6,11.2-7.9c4.3-1.9,8.9-2.9,13.8-2.9c3.9,0,7.7,0.8,11.4,2.3c3.6,1.5,6.9,3.9,9.7,7.2l2.2-7.8H-2763.9z
			 M-2799.3,84.7c2.8,0,5.6-0.6,8.1-1.9c2.6-1.3,4.8-3,6.6-5.2c1.9-2.2,3.3-4.8,4.4-7.7c1.1-2.9,1.6-6.1,1.6-9.4
			c0-3.3-0.5-6.5-1.6-9.4c-1.1-2.9-2.6-5.5-4.4-7.7c-1.9-2.2-4.1-4-6.6-5.2c-2.6-1.3-5.3-1.9-8.1-1.9c-2.9,0-5.6,0.6-8.1,1.9
			c-2.6,1.3-4.8,3-6.6,5.2c-1.9,2.2-3.3,4.8-4.4,7.7c-1.1,2.9-1.6,6.1-1.6,9.4c0,3.3,0.5,6.5,1.6,9.4c1.1,2.9,2.6,5.5,4.4,7.7
			c1.9,2.2,4.1,4,6.6,5.2C-2804.8,84.1-2802.1,84.7-2799.3,84.7z"/>
		<path class="st0" d="M-2695.8,95.6h-14.3V-12h14.3V54l27.7-29h17.7l-27.1,28.5l29.2,42.2h-16.2l-22.3-32.4l-9,9.4V95.6z"/>
		<path class="st0" d="M-2606.1,97.4c-4.9,0-9.5-1-13.8-2.9c-4.3-1.9-8-4.5-11.2-7.9c-3.2-3.3-5.7-7.3-7.6-11.8
			c-1.9-4.5-2.8-9.3-2.8-14.4c0-5.1,0.9-9.9,2.8-14.4c1.9-4.5,4.4-8.5,7.6-11.8c3.2-3.3,6.9-6,11.2-7.9c4.3-1.9,8.9-2.9,13.8-2.9
			c4.8,0,9.4,1,13.7,2.9c4.3,1.9,8.1,4.5,11.3,7.9c3.2,3.3,5.7,7.3,7.6,11.8c1.9,4.5,2.8,9.3,2.8,14.4c0,5.1-0.9,9.9-2.8,14.4
			c-1.9,4.5-4.4,8.5-7.6,11.8c-3.2,3.3-7,6-11.3,7.9C-2596.8,96.4-2601.3,97.4-2606.1,97.4z M-2606.2,36c-2.9,0-5.6,0.6-8.1,1.9
			c-2.6,1.3-4.8,3-6.7,5.2s-3.4,4.7-4.5,7.7c-1.1,3-1.6,6.1-1.6,9.5c0,3.4,0.5,6.5,1.6,9.5c1.1,3,2.6,5.5,4.5,7.8s4.2,4,6.7,5.2
			c2.6,1.3,5.3,1.9,8.1,1.9s5.6-0.6,8.1-1.9c2.6-1.3,4.8-3,6.7-5.2s3.4-4.8,4.4-7.8c1.1-3,1.6-6.1,1.6-9.5c0-3.4-0.5-6.5-1.6-9.5
			c-1.1-3-2.6-5.5-4.4-7.7s-4.1-3.9-6.7-5.2C-2600.6,36.7-2603.4,36-2606.2,36z"/>
		<path class="st0" d="M-2544.2-12V95.6h-14.3V-12H-2544.2z"/>
		<path class="st0" d="M-2513-12V95.6h-14.3V-12H-2513z"/>
		<path class="st0" d="M-2463.3,97.4c-5.1,0-9.9-1-14.4-2.9c-4.5-1.9-8.4-4.5-11.7-7.9c-3.3-3.3-6-7.3-7.9-11.8
			c-1.9-4.5-2.9-9.3-2.9-14.4c0-5.1,0.9-9.9,2.7-14.4c1.8-4.5,4.3-8.5,7.4-11.8c3.1-3.3,6.7-6,10.8-7.9c4.1-1.9,8.6-2.9,13.3-2.9
			c4.8,0,9.3,0.8,13.3,2.5c4.1,1.7,7.6,4.3,10.6,7.8c3,3.5,5.3,8,7,13.5c1.7,5.5,2.5,12,2.5,19.5h-52.5c0.7,2.6,1.8,4.9,3.2,7.2
			c1.5,2.2,3.2,4.1,5.2,5.8c2,1.6,4.3,2.9,6.8,3.8c2.5,0.9,5.1,1.3,7.9,1.3c3.7,0,7.2-0.7,10.4-2.1c3.2-1.4,5.9-3.2,8.2-5.5l8.8,8.8
			c-3.4,3.4-7.6,6.2-12.6,8.3C-2451.9,96.3-2457.4,97.4-2463.3,97.4z M-2465.9,36.3c-2.3,0-4.4,0.4-6.4,1.3c-2,0.9-3.9,2.1-5.6,3.7
			c-1.7,1.6-3.2,3.4-4.4,5.6c-1.2,2.2-2.1,4.5-2.7,7.1h37.3c-0.2-2.4-0.7-4.6-1.6-6.8c-0.9-2.2-2.1-4.1-3.7-5.7
			c-1.6-1.6-3.4-2.9-5.5-3.8C-2460.7,36.8-2463.2,36.3-2465.9,36.3z"/>
		<path class="st0" d="M-2403.6,95.6h-14.3V-12h14.3V54l27.7-29h17.7l-27.1,28.5l29.2,42.2h-16.2l-22.3-32.4l-9,9.4V95.6z"/>
		<path class="st0" d="M-2318.5,97.8c-3.9,0.3-7.5-0.3-10.6-1.7c-3.1-1.4-5.7-3.9-7.7-7.5c-2-3.6-2.9-8.6-2.9-15.1V37.7h-10.3v-9.8
			l10.3-2.9V6.1h14.3V25h19.2v12.7h-19.2v38c0,2.4,0.3,4.2,0.8,5.6c0.5,1.4,1.4,2.4,2.7,3.1c1.3,0.7,2.9,1,5,1s4.6-0.2,7.5-0.6
			l2.8,10.5C-2310.6,96.7-2314.6,97.5-2318.5,97.8z"/>
		<path class="st0" d="M-2286.8,9.6c-2.6,0-4.7-0.9-6.5-2.7c-1.8-1.8-2.7-4-2.7-6.6c0-2.6,0.9-4.7,2.7-6.5c1.8-1.8,3.9-2.7,6.5-2.7
			c2.6,0,4.7,0.9,6.5,2.7c1.8,1.8,2.7,3.9,2.7,6.5c0,2.6-0.9,4.7-2.7,6.6C-2282.1,8.7-2284.2,9.6-2286.8,9.6z M-2279.4,95.6h-14.4
			V25h14.3L-2279.4,95.6z"/>
		<path class="st0" d="M-2221.8,95.6h-19L-2270,25h15.5l23.3,56.2l23.3-56.2h15.5L-2221.8,95.6z"/>
	</g>
	<g id="XMLID_00000160150656986523347170000010777558576190114440_">
		<path class="st0" d="M-2127.1-39.3h45.7v14.4h-45.7v47.7h-0.9h-13.5h-2.6v-47.7h-46.8v-14.4h46.8v-47.7h2.6h13.5h0.9V-39.3z"/>
	</g>
</g>
<g>
	<g id="XMLID_00000152966565377803782520000003891045119498864004_">
		<path d="M-3640.6,53.6V-50.9h15.5v90.2h48.4v14.3H-3640.6z"/>
		<path d="M-3488.5,16.6c0,5.3-1,10.3-3,15c-2,4.7-4.7,8.8-8.2,12.2c-3.4,3.5-7.5,6.2-12.1,8.3c-4.6,2-9.6,3-14.9,3
			c-5.3,0-10.3-1-14.9-3c-4.6-2-8.7-4.8-12.1-8.3c-3.4-3.5-6.2-7.6-8.2-12.2c-2-4.7-3-9.7-3-15v-67.5h15.5v67.5c0,3.1,0.6,6.1,1.8,9
			c1.2,2.9,2.8,5.4,4.8,7.6c2.1,2.2,4.5,4,7.3,5.2c2.8,1.3,5.8,1.9,8.9,1.9c3.1,0,6.1-0.6,8.8-1.9c2.7-1.3,5.1-3,7.2-5.2
			c2.1-2.2,3.7-4.7,4.8-7.6c1.2-2.8,1.8-5.8,1.8-9v-67.5h15.5V16.6z"/>
		<path d="M-3382.8-50.9h15.6V53.6h-15.5v-80.2l-30.5,42h-11.9l-30.7-42v80.2h-15.5V-50.9h15.5l36.6,50.3L-3382.8-50.9z"/>
		<path d="M-3340.1,53.6h-16.8l43.5-104.5h17l43.5,104.5h-16.7l-13.7-32.7h-43.2L-3340.1,53.6z M-3320.6,6.6h31.4l-15.6-37.7
			L-3320.6,6.6z"/>
		<path d="M-3994.7,124.6l50.3,56.2h-20.8l-39.7-46l-16.5,16.5v29.3h-15.5V76.1h15.5v56.2l11.5-12.2l43.5-43.9h20.2L-3994.7,124.6z"
			/>
		<path d="M-3885.2,74.7c7.1,0,13.8,1.4,20.1,4.3c6.3,2.9,11.8,6.7,16.4,11.6c4.7,4.9,8.4,10.6,11.1,17.1c2.8,6.5,4.1,13.4,4.1,20.7
			c0,7.4-1.4,14.3-4.1,20.8c-2.8,6.5-6.5,12.2-11.2,17c-4.7,4.9-10.2,8.7-16.5,11.6c-6.3,2.9-13,4.3-20.1,4.3s-13.8-1.4-20.1-4.3
			c-6.3-2.8-11.8-6.7-16.4-11.6c-4.7-4.9-8.4-10.5-11.1-17c-2.7-6.5-4.1-13.4-4.1-20.8c0-7.3,1.3-14.2,4.1-20.7
			c2.7-6.5,6.4-12.2,11.1-17.1c4.7-4.9,10.2-8.7,16.5-11.6C-3898.9,76.1-3892.2,74.7-3885.2,74.7z M-3885.2,167.4c5,0,9.7-1,14.1-3
			c4.4-2,8.2-4.8,11.4-8.3c3.3-3.5,5.8-7.7,7.7-12.5c1.9-4.8,2.8-9.9,2.8-15.3c0-5.4-0.9-10.5-2.8-15.2c-1.9-4.7-4.4-8.8-7.7-12.4
			c-3.3-3.5-7.1-6.3-11.4-8.3c-4.4-2-9.1-3-14.1-3c-5,0-9.7,1-14.1,3c-4.4,2-8.2,4.8-11.5,8.3c-3.3,3.5-5.8,7.7-7.8,12.4
			c-1.9,4.7-2.9,9.8-2.9,15.2c0,5.4,1,10.5,2.9,15.3c1.9,4.8,4.5,8.9,7.8,12.5c3.3,3.5,7.1,6.3,11.5,8.3
			C-3895,166.4-3890.3,167.4-3885.2,167.4z"/>
		<path d="M-3820.1,180.7V76.1h15.5v90.2h48.4v14.3H-3820.1z"/>
		<path d="M-3744.5,180.7V76.1h15.5v90.2h48.4v14.3H-3744.5z"/>
		<path d="M-3605.3,76.1V90h-48.5v28.5h43.2v14.3h-43.2v33.6h48.5v14.3h-48.5h-7.7h-7.7V76.1H-3605.3z"/>
		<path d="M-3546.2,124.6l50.3,56.2h-20.8l-39.7-46l-16.5,16.5v29.3h-15.5V76.1h15.5v56.2l11.5-12.2l43.5-43.9h20.2L-3546.2,124.6z"
			/>
		<path d="M-3464.4,90h-28.3V76.1h72.2V90h-28.5v90.7h-15.5V90z"/>
		<path d="M-3379.7,88.8V168h7.5v12.7h-30.8V168h7.8V88.8h-7.8V76.1h30.8v12.7H-3379.7z"/>
		<path d="M-3313.1,180.7l-43.3-104.5h16.7l35.2,84.8l35.2-84.8h16.7l-43.3,104.5H-3313.1z"/>
	</g>
	<g id="XMLID_00000178925660632774717840000017818503790879054007_">
		<path d="M-3188.8-122.3h45.7v14.4h-45.7v47.7h-0.9h-13.5h-2.6v-47.7h-46.8v-14.4h46.8v-47.7h2.6h13.5h0.9V-122.3z"/>
	</g>
</g>
<g>
	<g id="XMLID_00000019654228767832974310000002372527038161740424_">
		<path class="st0" d="M-1607,12.9v13.1h-1.7V12.9H-1607z"/>
		<path class="st0" d="M-1599.2,25.2c-0.3,0.3-0.6,0.5-1,0.7c-0.4,0.2-0.8,0.3-1.3,0.3c-0.3,0-0.7,0-1.1-0.1s-0.8-0.3-1.1-0.5
			c-0.3-0.3-0.6-0.6-0.9-1.1c-0.2-0.5-0.3-1.1-0.3-1.8v-5.2h1.6v5.2c0,0.4,0.1,0.7,0.2,0.9c0.1,0.3,0.3,0.5,0.4,0.6
			c0.2,0.2,0.4,0.3,0.6,0.3c0.2,0.1,0.5,0.1,0.7,0.1c0.2,0,0.4,0,0.7-0.1c0.2-0.1,0.5-0.2,0.7-0.3c0.2-0.2,0.4-0.4,0.5-0.6
			c0.1-0.3,0.2-0.6,0.2-0.9v-5.2h1.7v8.6h-1.4L-1599.2,25.2z"/>
		<path class="st0" d="M-1593.7,25.9h-1.7v-8.6h1.4l0.4,0.7c0.2-0.3,0.5-0.5,0.8-0.7c0.3-0.2,0.7-0.3,1.1-0.3c0.2,0,0.4,0,0.6,0.1
			c0.2,0,0.4,0.1,0.6,0.2c0.2,0.1,0.4,0.2,0.6,0.4c0.2,0.2,0.4,0.4,0.5,0.7c0.2-0.4,0.5-0.7,0.9-1c0.4-0.3,0.8-0.4,1.3-0.4
			c0.3,0,0.6,0,1,0.1c0.3,0.1,0.7,0.3,1,0.5c0.3,0.3,0.5,0.6,0.7,1.1c0.2,0.5,0.3,1.1,0.3,1.8v5.2h-1.6v-5.2c0-0.7-0.2-1.3-0.5-1.5
			c-0.3-0.3-0.7-0.4-1.2-0.4c-0.4,0-0.7,0.2-1,0.5c-0.3,0.3-0.4,0.8-0.4,1.5v5.2h-1.6v-5.2c0-0.7-0.2-1.3-0.5-1.5
			c-0.3-0.3-0.7-0.4-1.2-0.4c-0.4,0-0.7,0.1-0.9,0.4c-0.3,0.3-0.4,0.7-0.5,1.3V25.9z"/>
		<path class="st0" d="M-1574.1,17.4v8.6h-1.5l-0.3-1c-0.3,0.4-0.7,0.7-1.1,0.9c-0.5,0.2-0.9,0.3-1.4,0.3c-0.6,0-1.2-0.1-1.7-0.3
			c-0.5-0.2-1-0.6-1.4-1c-0.4-0.4-0.7-0.9-0.9-1.4c-0.2-0.5-0.3-1.1-0.3-1.8c0-0.6,0.1-1.2,0.3-1.8c0.2-0.5,0.5-1,0.9-1.4
			c0.4-0.4,0.8-0.7,1.4-1c0.5-0.2,1.1-0.3,1.7-0.3c0.5,0,0.9,0.1,1.4,0.3c0.4,0.2,0.8,0.5,1.2,0.9l0.3-0.9H-1574.1z M-1578.4,24.6
			c0.3,0,0.7-0.1,1-0.2c0.3-0.2,0.6-0.4,0.8-0.6c0.2-0.3,0.4-0.6,0.5-0.9c0.1-0.4,0.2-0.7,0.2-1.1c0-0.4-0.1-0.8-0.2-1.1
			c-0.1-0.4-0.3-0.7-0.5-0.9c-0.2-0.3-0.5-0.5-0.8-0.6c-0.3-0.2-0.6-0.2-1-0.2c-0.3,0-0.7,0.1-1,0.2c-0.3,0.2-0.6,0.4-0.8,0.6
			c-0.2,0.3-0.4,0.6-0.5,0.9c-0.1,0.4-0.2,0.7-0.2,1.1c0,0.4,0.1,0.8,0.2,1.1c0.1,0.4,0.3,0.7,0.5,0.9c0.2,0.3,0.5,0.5,0.8,0.6
			C-1579.1,24.5-1578.7,24.6-1578.4,24.6z"/>
		<path class="st0" d="M-1565.8,25.9h-1.7V12.9h1.7v8l3.4-3.5h2.1l-3.3,3.5l3.5,5.1h-2l-2.7-3.9l-1.1,1.1V25.9z"/>
		<path class="st0" d="M-1555,26.1c-0.6,0-1.2-0.1-1.7-0.3c-0.5-0.2-1-0.6-1.4-1c-0.4-0.4-0.7-0.9-0.9-1.4c-0.2-0.5-0.3-1.1-0.3-1.8
			c0-0.6,0.1-1.2,0.3-1.8c0.2-0.5,0.5-1,0.9-1.4c0.4-0.4,0.8-0.7,1.4-1c0.5-0.2,1.1-0.3,1.7-0.3c0.6,0,1.1,0.1,1.7,0.3
			c0.5,0.2,1,0.6,1.4,1c0.4,0.4,0.7,0.9,0.9,1.4c0.2,0.5,0.3,1.1,0.3,1.8c0,0.6-0.1,1.2-0.3,1.8c-0.2,0.5-0.5,1-0.9,1.4
			c-0.4,0.4-0.8,0.7-1.4,1C-1553.8,26-1554.4,26.1-1555,26.1z M-1555,18.7c-0.3,0-0.7,0.1-1,0.2c-0.3,0.2-0.6,0.4-0.8,0.6
			c-0.2,0.3-0.4,0.6-0.5,0.9c-0.1,0.4-0.2,0.7-0.2,1.1c0,0.4,0.1,0.8,0.2,1.1c0.1,0.4,0.3,0.7,0.5,0.9c0.2,0.3,0.5,0.5,0.8,0.6
			c0.3,0.2,0.6,0.2,1,0.2c0.3,0,0.7-0.1,1-0.2c0.3-0.2,0.6-0.4,0.8-0.6c0.2-0.3,0.4-0.6,0.5-0.9c0.1-0.4,0.2-0.7,0.2-1.1
			c0-0.4-0.1-0.8-0.2-1.1c-0.1-0.4-0.3-0.7-0.5-0.9c-0.2-0.3-0.5-0.5-0.8-0.6C-1554.3,18.8-1554.6,18.7-1555,18.7z"/>
		<path class="st0" d="M-1547.5,12.9v13.1h-1.7V12.9H-1547.5z"/>
		<path class="st0" d="M-1543.7,12.9v13.1h-1.7V12.9H-1543.7z"/>
		<path class="st0" d="M-1537.6,26.1c-0.6,0-1.2-0.1-1.7-0.3c-0.5-0.2-1-0.6-1.4-1c-0.4-0.4-0.7-0.9-1-1.4c-0.2-0.5-0.3-1.1-0.3-1.8
			c0-0.6,0.1-1.2,0.3-1.8c0.2-0.5,0.5-1,0.9-1.4c0.4-0.4,0.8-0.7,1.3-1c0.5-0.2,1-0.3,1.6-0.3c0.6,0,1.1,0.1,1.6,0.3
			c0.5,0.2,0.9,0.5,1.3,0.9c0.4,0.4,0.6,1,0.8,1.6c0.2,0.7,0.3,1.5,0.3,2.4h-6.4c0.1,0.3,0.2,0.6,0.4,0.9c0.2,0.3,0.4,0.5,0.6,0.7
			c0.2,0.2,0.5,0.3,0.8,0.5c0.3,0.1,0.6,0.2,1,0.2c0.5,0,0.9-0.1,1.3-0.3c0.4-0.2,0.7-0.4,1-0.7l1.1,1.1c-0.4,0.4-0.9,0.8-1.5,1
			C-1536.3,26-1536.9,26.1-1537.6,26.1z M-1538,18.7c-0.3,0-0.5,0.1-0.8,0.2c-0.2,0.1-0.5,0.3-0.7,0.4c-0.2,0.2-0.4,0.4-0.5,0.7
			c-0.1,0.3-0.3,0.5-0.3,0.9h4.5c0-0.3-0.1-0.6-0.2-0.8c-0.1-0.3-0.3-0.5-0.4-0.7c-0.2-0.2-0.4-0.4-0.7-0.5
			C-1537.3,18.8-1537.6,18.7-1538,18.7z"/>
		<path class="st0" d="M-1530.4,25.9h-1.7V12.9h1.7v8l3.4-3.5h2.1l-3.3,3.5l3.5,5.1h-2l-2.7-3.9l-1.1,1.1V25.9z"/>
		<path class="st0" d="M-1520.1,26.2c-0.5,0-0.9,0-1.3-0.2c-0.4-0.2-0.7-0.5-0.9-0.9c-0.2-0.4-0.4-1-0.4-1.8v-4.3h-1.3v-1.2l1.3-0.4
			v-2.3h1.7v2.3h2.3v1.5h-2.3v4.6c0,0.3,0,0.5,0.1,0.7c0.1,0.2,0.2,0.3,0.3,0.4c0.2,0.1,0.4,0.1,0.6,0.1c0.3,0,0.6,0,0.9-0.1
			l0.3,1.3C-1519.1,26.1-1519.6,26.2-1520.1,26.2z"/>
		<path class="st0" d="M-1516.2,15.5c-0.3,0-0.6-0.1-0.8-0.3c-0.2-0.2-0.3-0.5-0.3-0.8c0-0.3,0.1-0.6,0.3-0.8
			c0.2-0.2,0.5-0.3,0.8-0.3c0.3,0,0.6,0.1,0.8,0.3c0.2,0.2,0.3,0.5,0.3,0.8c0,0.3-0.1,0.6-0.3,0.8
			C-1515.7,15.4-1515.9,15.5-1516.2,15.5z M-1515.3,25.9h-1.8v-8.6h1.7L-1515.3,25.9z"/>
		<path class="st0" d="M-1508.3,25.9h-2.3l-3.5-8.6h1.9l2.8,6.8l2.8-6.8h1.9L-1508.3,25.9z"/>
	</g>
	<g id="XMLID_00000137134113005944930860000003824897055732589714_">
		<path class="st0" d="M-1496.9,9.6h5.5v1.7h-5.5v5.8h-0.1h-1.6h-0.3v-5.8h-5.7V9.6h5.7V3.8h0.3h1.6h0.1V9.6z"/>
	</g>
</g>
<g>
	
		<text id="XMLID_00000171720129064286260030000009184865436358415277_" transform="matrix(1 0 0 1 -1270.6499 95.6057)" class="st0" style="font-family:'Kollektif'; font-size:147.4407px;">kloskowski</text>
	
		<text id="XMLID_00000064340071244374164090000006165391591697837463_" transform="matrix(1 0 0 1 -592.5962 31.9074)" class="st0" style="font-family:'Kollektif'; font-size:217.6302px;">+</text>
</g>
<g>
	
		<text id="XMLID_00000168832093639812161520000002625341106822432403_" transform="matrix(1 0 0 1 -450.2969 28.7627)" class="st0" style="font-family:'Kollektif'; font-size:22.4232px;">kloskowski</text>
	
		<text id="XMLID_00000076593443515209048180000003734115428580918666_" transform="matrix(1 0 0 1 -347.1768 19.0742)" class="st0" style="font-family:'Kollektif'; font-size:33.0978px;">+</text>
</g>
<g>
	<g id="XMLID_00000000940964189496605090000006910922912936575135_">
		<path class="st0" d="M-306.8,28.8h-2.2V12.4h2.2v10l4.2-4.4h2.7l-4.1,4.3l4.4,6.4h-2.5l-3.4-4.9l-1.4,1.4V28.8z"/>
		<path class="st0" d="M-295.5,12.4v16.4h-2.2V12.4H-295.5z"/>
		<path class="st0" d="M-288.4,29c-0.7,0-1.4-0.1-2.1-0.4c-0.7-0.3-1.2-0.7-1.7-1.2c-0.5-0.5-0.9-1.1-1.2-1.8
			c-0.3-0.7-0.4-1.4-0.4-2.2s0.1-1.5,0.4-2.2s0.7-1.3,1.2-1.8c0.5-0.5,1.1-0.9,1.7-1.2c0.7-0.3,1.3-0.4,2.1-0.4
			c0.7,0,1.4,0.1,2.1,0.4c0.7,0.3,1.2,0.7,1.7,1.2c0.5,0.5,0.9,1.1,1.2,1.8s0.4,1.4,0.4,2.2s-0.1,1.5-0.4,2.2
			c-0.3,0.7-0.7,1.3-1.2,1.8c-0.5,0.5-1.1,0.9-1.7,1.2C-286.9,28.9-287.6,29-288.4,29z M-288.4,19.7c-0.4,0-0.8,0.1-1.2,0.3
			c-0.4,0.2-0.7,0.5-1,0.8c-0.3,0.3-0.5,0.7-0.7,1.2s-0.2,0.9-0.2,1.4s0.1,1,0.2,1.4s0.4,0.8,0.7,1.2c0.3,0.3,0.6,0.6,1,0.8
			c0.4,0.2,0.8,0.3,1.2,0.3c0.4,0,0.8-0.1,1.2-0.3c0.4-0.2,0.7-0.5,1-0.8c0.3-0.3,0.5-0.7,0.7-1.2s0.2-0.9,0.2-1.4s-0.1-1-0.2-1.4
			s-0.4-0.8-0.7-1.2s-0.6-0.6-1-0.8C-287.5,19.8-287.9,19.7-288.4,19.7z"/>
		<path class="st0" d="M-276.2,26.5c0.1-0.1,0.3-0.3,0.4-0.4c0.1-0.1,0.2-0.3,0.2-0.5c0-0.2-0.1-0.4-0.3-0.6
			c-0.2-0.2-0.4-0.3-0.6-0.4c-0.2-0.1-0.5-0.2-0.8-0.3c-0.3-0.1-0.5-0.1-0.7-0.2c-0.5-0.1-1-0.3-1.4-0.4s-0.8-0.4-1.1-0.6
			c-0.3-0.2-0.6-0.5-0.8-0.9c-0.2-0.3-0.3-0.7-0.3-1.2c0-0.4,0.1-0.8,0.3-1.2c0.2-0.4,0.5-0.7,0.8-1c0.3-0.3,0.8-0.5,1.2-0.7
			c0.5-0.2,1-0.3,1.5-0.3c0.5,0,0.9,0.1,1.3,0.2c0.4,0.1,0.8,0.3,1.1,0.6c0.3,0.2,0.6,0.5,0.9,0.8c0.2,0.3,0.4,0.7,0.5,1.1l-2,0.5
			c-0.1-0.4-0.3-0.7-0.6-0.9c-0.3-0.2-0.7-0.4-1.2-0.4c-0.2,0-0.4,0-0.6,0.1c-0.2,0.1-0.4,0.1-0.5,0.2c-0.2,0.1-0.3,0.2-0.4,0.4
			s-0.2,0.3-0.2,0.5c0,0.2,0.1,0.4,0.2,0.5s0.3,0.3,0.5,0.4c0.2,0.1,0.4,0.2,0.6,0.2c0.2,0.1,0.4,0.1,0.6,0.2c0.8,0.2,1.4,0.4,2,0.6
			c0.5,0.2,0.9,0.5,1.3,0.7c0.3,0.3,0.5,0.6,0.7,0.9c0.1,0.3,0.2,0.7,0.2,1.1c0,0.5-0.1,0.9-0.3,1.3c-0.2,0.4-0.5,0.8-0.9,1.1
			c-0.4,0.3-0.8,0.5-1.4,0.7c-0.5,0.2-1.1,0.3-1.7,0.3c-0.9,0-1.7-0.2-2.5-0.7c-0.7-0.5-1.2-1.1-1.5-1.8l1.8-0.8
			c0.2,0.5,0.5,0.9,0.9,1.1c0.4,0.2,0.8,0.3,1.3,0.3C-277.1,27-276.6,26.8-276.2,26.5z"/>
		<path class="st0" d="M-269.3,28.8h-2.2V12.4h2.2v10l4.2-4.4h2.7l-4.1,4.3l4.4,6.4h-2.5l-3.4-4.9l-1.4,1.4V28.8z"/>
		<path class="st0" d="M-255.7,29c-0.7,0-1.4-0.1-2.1-0.4c-0.7-0.3-1.2-0.7-1.7-1.2c-0.5-0.5-0.9-1.1-1.2-1.8
			c-0.3-0.7-0.4-1.4-0.4-2.2s0.1-1.5,0.4-2.2s0.7-1.3,1.2-1.8c0.5-0.5,1.1-0.9,1.7-1.2c0.7-0.3,1.3-0.4,2.1-0.4
			c0.7,0,1.4,0.1,2.1,0.4c0.7,0.3,1.2,0.7,1.7,1.2c0.5,0.5,0.9,1.1,1.2,1.8s0.4,1.4,0.4,2.2s-0.1,1.5-0.4,2.2
			c-0.3,0.7-0.7,1.3-1.2,1.8c-0.5,0.5-1.1,0.9-1.7,1.2C-254.2,28.9-254.9,29-255.7,29z M-255.7,19.7c-0.4,0-0.8,0.1-1.2,0.3
			c-0.4,0.2-0.7,0.5-1,0.8c-0.3,0.3-0.5,0.7-0.7,1.2s-0.2,0.9-0.2,1.4s0.1,1,0.2,1.4s0.4,0.8,0.7,1.2c0.3,0.3,0.6,0.6,1,0.8
			c0.4,0.2,0.8,0.3,1.2,0.3c0.4,0,0.8-0.1,1.2-0.3c0.4-0.2,0.7-0.5,1-0.8c0.3-0.3,0.5-0.7,0.7-1.2s0.2-0.9,0.2-1.4s-0.1-1-0.2-1.4
			s-0.4-0.8-0.7-1.2s-0.6-0.6-1-0.8C-254.8,19.8-255.2,19.7-255.7,19.7z"/>
		<path class="st0" d="M-245.9,28.8l-3.6-10.7h2.3l2.5,8.1l2.6-8.1h1.9l2.6,8l2.5-8h2.3l-3.6,10.7h-2.4l-2.2-6.6l-0.2-1l-0.2,1
			l-2.2,6.6H-245.9z"/>
		<path class="st0" d="M-226.1,26.5c0.1-0.1,0.3-0.3,0.4-0.4c0.1-0.1,0.2-0.3,0.2-0.5c0-0.2-0.1-0.4-0.3-0.6
			c-0.2-0.2-0.4-0.3-0.6-0.4c-0.2-0.1-0.5-0.2-0.8-0.3c-0.3-0.1-0.5-0.1-0.7-0.2c-0.5-0.1-1-0.3-1.4-0.4s-0.8-0.4-1.1-0.6
			c-0.3-0.2-0.6-0.5-0.8-0.9c-0.2-0.3-0.3-0.7-0.3-1.2c0-0.4,0.1-0.8,0.3-1.2c0.2-0.4,0.5-0.7,0.8-1c0.3-0.3,0.8-0.5,1.2-0.7
			c0.5-0.2,1-0.3,1.5-0.3c0.5,0,0.9,0.1,1.3,0.2c0.4,0.1,0.8,0.3,1.1,0.6c0.3,0.2,0.6,0.5,0.9,0.8c0.2,0.3,0.4,0.7,0.5,1.1l-2,0.5
			c-0.1-0.4-0.3-0.7-0.6-0.9c-0.3-0.2-0.7-0.4-1.2-0.4c-0.2,0-0.4,0-0.6,0.1c-0.2,0.1-0.4,0.1-0.5,0.2c-0.2,0.1-0.3,0.2-0.4,0.4
			s-0.2,0.3-0.2,0.5c0,0.2,0.1,0.4,0.2,0.5s0.3,0.3,0.5,0.4c0.2,0.1,0.4,0.2,0.6,0.2c0.2,0.1,0.4,0.1,0.6,0.2c0.8,0.2,1.4,0.4,2,0.6
			c0.5,0.2,0.9,0.5,1.3,0.7c0.3,0.3,0.5,0.6,0.7,0.9c0.1,0.3,0.2,0.7,0.2,1.1c0,0.5-0.1,0.9-0.3,1.3c-0.2,0.4-0.5,0.8-0.9,1.1
			c-0.4,0.3-0.8,0.5-1.4,0.7c-0.5,0.2-1.1,0.3-1.7,0.3c-0.9,0-1.7-0.2-2.5-0.7c-0.7-0.5-1.2-1.1-1.5-1.8l1.8-0.8
			c0.2,0.5,0.5,0.9,0.9,1.1c0.4,0.2,0.8,0.3,1.3,0.3C-227,27-226.5,26.8-226.1,26.5z"/>
		<path class="st0" d="M-219.2,28.8h-2.2V12.4h2.2v10l4.2-4.4h2.7l-4.1,4.3l4.4,6.4h-2.5l-3.4-4.9l-1.4,1.4V28.8z"/>
		<path class="st0" d="M-209.1,15.7c-0.4,0-0.7-0.1-1-0.4c-0.3-0.3-0.4-0.6-0.4-1s0.1-0.7,0.4-1c0.3-0.3,0.6-0.4,1-0.4
			s0.7,0.1,1,0.4c0.3,0.3,0.4,0.6,0.4,1s-0.1,0.7-0.4,1C-208.4,15.6-208.7,15.7-209.1,15.7z M-208,28.8h-2.2V18h2.2L-208,28.8z"/>
	</g>
	<g id="XMLID_00000019667215624364246500000000454569042744340662_">
		<path class="st0" d="M-197.2,8.3h7v2.2h-7v7.2h-0.1h-2.1h-0.4v-7.2h-7.1V8.3h7.1V1h0.4h2.1h0.1V8.3z"/>
	</g>
</g>
<g id="XMLID_00000099624532078209279750000003105438056249236388_">
	<path class="st0" d="M-164.7,24.1h-2.5V5.6h2.5V17l4.8-5h3l-4.7,4.9l5,7.2h-2.8l-3.8-5.6l-1.5,1.6V24.1z"/>
	<path class="st0" d="M-152.1,5.6v18.5h-2.5V5.6H-152.1z"/>
	<path class="st0" d="M-144,24.4c-0.8,0-1.6-0.2-2.4-0.5c-0.7-0.3-1.4-0.8-1.9-1.4c-0.5-0.6-1-1.3-1.3-2s-0.5-1.6-0.5-2.5
		c0-0.9,0.2-1.7,0.5-2.5c0.3-0.8,0.8-1.5,1.3-2c0.5-0.6,1.2-1,1.9-1.4c0.7-0.3,1.5-0.5,2.4-0.5c0.8,0,1.6,0.2,2.4,0.5
		c0.7,0.3,1.4,0.8,1.9,1.4c0.5,0.6,1,1.3,1.3,2c0.3,0.8,0.5,1.6,0.5,2.5c0,0.9-0.2,1.7-0.5,2.5c-0.3,0.8-0.8,1.5-1.3,2
		c-0.5,0.6-1.2,1-1.9,1.4C-142.3,24.2-143.1,24.4-144,24.4z M-144,13.9c-0.5,0-1,0.1-1.4,0.3s-0.8,0.5-1.2,0.9
		c-0.3,0.4-0.6,0.8-0.8,1.3c-0.2,0.5-0.3,1.1-0.3,1.6c0,0.6,0.1,1.1,0.3,1.6c0.2,0.5,0.4,1,0.8,1.3c0.3,0.4,0.7,0.7,1.2,0.9
		c0.4,0.2,0.9,0.3,1.4,0.3s1-0.1,1.4-0.3c0.4-0.2,0.8-0.5,1.1-0.9c0.3-0.4,0.6-0.8,0.8-1.3c0.2-0.5,0.3-1.1,0.3-1.6
		c0-0.6-0.1-1.1-0.3-1.6c-0.2-0.5-0.4-0.9-0.8-1.3c-0.3-0.4-0.7-0.7-1.1-0.9C-143,14-143.5,13.9-144,13.9z"/>
	<path class="st0" d="M-130.2,21.6c0.2-0.1,0.3-0.3,0.4-0.5c0.1-0.2,0.2-0.4,0.2-0.6c0-0.3-0.1-0.5-0.3-0.7
		c-0.2-0.2-0.4-0.3-0.7-0.5s-0.6-0.2-0.9-0.3c-0.3-0.1-0.6-0.1-0.8-0.2c-0.6-0.1-1.1-0.3-1.6-0.5c-0.5-0.2-0.9-0.4-1.3-0.7
		c-0.4-0.3-0.7-0.6-0.9-1c-0.2-0.4-0.3-0.8-0.3-1.4c0-0.5,0.1-1,0.4-1.4c0.2-0.4,0.5-0.8,0.9-1.1c0.4-0.3,0.9-0.6,1.4-0.8
		s1.1-0.3,1.7-0.3c0.5,0,1,0.1,1.5,0.2c0.5,0.2,0.9,0.4,1.3,0.6c0.4,0.3,0.7,0.6,1,1c0.3,0.4,0.4,0.8,0.5,1.2l-2.2,0.5
		c-0.1-0.4-0.3-0.7-0.7-1c-0.3-0.3-0.8-0.4-1.4-0.4c-0.2,0-0.4,0-0.6,0.1s-0.4,0.1-0.6,0.3s-0.3,0.3-0.5,0.4
		c-0.1,0.2-0.2,0.4-0.2,0.6c0,0.2,0.1,0.4,0.2,0.6c0.1,0.2,0.3,0.3,0.5,0.4s0.4,0.2,0.7,0.3c0.2,0.1,0.5,0.1,0.7,0.2
		c0.9,0.2,1.6,0.5,2.2,0.7c0.6,0.3,1.1,0.5,1.4,0.8c0.4,0.3,0.6,0.6,0.7,1c0.1,0.4,0.2,0.8,0.2,1.2c0,0.5-0.1,1-0.4,1.5
		c-0.2,0.5-0.6,0.9-1,1.2c-0.4,0.3-0.9,0.6-1.5,0.8c-0.6,0.2-1.2,0.3-1.9,0.3c-1,0-2-0.3-2.8-0.8c-0.8-0.5-1.4-1.2-1.7-2.1l2.1-0.9
		c0.3,0.6,0.6,1,1,1.2c0.4,0.2,0.9,0.3,1.4,0.3C-131.3,22.1-130.7,21.9-130.2,21.6z"/>
	<path class="st0" d="M-122.4,24.1h-2.5V5.6h2.5V17l4.8-5h3l-4.7,4.9l5,7.2h-2.8l-3.8-5.6l-1.5,1.6V24.1z"/>
	<path class="st0" d="M-107,24.4c-0.8,0-1.6-0.2-2.4-0.5c-0.7-0.3-1.4-0.8-1.9-1.4c-0.5-0.6-1-1.3-1.3-2s-0.5-1.6-0.5-2.5
		c0-0.9,0.2-1.7,0.5-2.5c0.3-0.8,0.8-1.5,1.3-2c0.5-0.6,1.2-1,1.9-1.4c0.7-0.3,1.5-0.5,2.4-0.5c0.8,0,1.6,0.2,2.4,0.5
		c0.7,0.3,1.4,0.8,1.9,1.4c0.5,0.6,1,1.3,1.3,2c0.3,0.8,0.5,1.6,0.5,2.5c0,0.9-0.2,1.7-0.5,2.5c-0.3,0.8-0.8,1.5-1.3,2
		c-0.5,0.6-1.2,1-1.9,1.4C-105.4,24.2-106.2,24.4-107,24.4z M-107,13.9c-0.5,0-1,0.1-1.4,0.3s-0.8,0.5-1.2,0.9
		c-0.3,0.4-0.6,0.8-0.8,1.3c-0.2,0.5-0.3,1.1-0.3,1.6c0,0.6,0.1,1.1,0.3,1.6c0.2,0.5,0.4,1,0.8,1.3c0.3,0.4,0.7,0.7,1.2,0.9
		c0.4,0.2,0.9,0.3,1.4,0.3s1-0.1,1.4-0.3c0.4-0.2,0.8-0.5,1.1-0.9c0.3-0.4,0.6-0.8,0.8-1.3c0.2-0.5,0.3-1.1,0.3-1.6
		c0-0.6-0.1-1.1-0.3-1.6c-0.2-0.5-0.4-0.9-0.8-1.3c-0.3-0.4-0.7-0.7-1.1-0.9C-106,14-106.5,13.9-107,13.9z"/>
	<path class="st0" d="M-95.9,24.1L-100,12h2.6l2.8,9.2l3-9.2h2.2l3,9.1l2.8-9.1h2.6L-85,24.1h-2.7l-2.5-7.4l-0.2-1.2l-0.2,1.2
		l-2.5,7.4H-95.9z"/>
	<path class="st0" d="M-73.6,21.6c0.2-0.1,0.3-0.3,0.4-0.5c0.1-0.2,0.2-0.4,0.2-0.6c0-0.3-0.1-0.5-0.3-0.7c-0.2-0.2-0.4-0.3-0.7-0.5
		s-0.6-0.2-0.9-0.3c-0.3-0.1-0.6-0.1-0.8-0.2c-0.6-0.1-1.1-0.3-1.6-0.5c-0.5-0.2-0.9-0.4-1.3-0.7c-0.4-0.3-0.7-0.6-0.9-1
		c-0.2-0.4-0.3-0.8-0.3-1.4c0-0.5,0.1-1,0.4-1.4c0.2-0.4,0.5-0.8,0.9-1.1c0.4-0.3,0.9-0.6,1.4-0.8s1.1-0.3,1.7-0.3
		c0.5,0,1,0.1,1.5,0.2c0.5,0.2,0.9,0.4,1.3,0.6c0.4,0.3,0.7,0.6,1,1c0.3,0.4,0.4,0.8,0.5,1.2l-2.2,0.5c-0.1-0.4-0.3-0.7-0.7-1
		c-0.3-0.3-0.8-0.4-1.4-0.4c-0.2,0-0.4,0-0.6,0.1s-0.4,0.1-0.6,0.3s-0.3,0.3-0.5,0.4c-0.1,0.2-0.2,0.4-0.2,0.6
		c0,0.2,0.1,0.4,0.2,0.6c0.1,0.2,0.3,0.3,0.5,0.4s0.4,0.2,0.7,0.3c0.2,0.1,0.5,0.1,0.7,0.2c0.9,0.2,1.6,0.5,2.2,0.7
		c0.6,0.3,1.1,0.5,1.4,0.8c0.4,0.3,0.6,0.6,0.7,1c0.1,0.4,0.2,0.8,0.2,1.2c0,0.5-0.1,1-0.4,1.5c-0.2,0.5-0.6,0.9-1,1.2
		c-0.4,0.3-0.9,0.6-1.5,0.8c-0.6,0.2-1.2,0.3-1.9,0.3c-1,0-2-0.3-2.8-0.8c-0.8-0.5-1.4-1.2-1.7-2.1l2.1-0.9c0.3,0.6,0.6,1,1,1.2
		c0.4,0.2,0.9,0.3,1.4,0.3C-74.6,22.1-74.1,21.9-73.6,21.6z"/>
	<path class="st0" d="M-65.8,24.1h-2.5V5.6h2.5V17l4.8-5h3l-4.7,4.9l5,7.2h-2.8l-3.8-5.6l-1.5,1.6V24.1z"/>
	<path class="st0" d="M-54.4,9.3c-0.4,0-0.8-0.2-1.1-0.5c-0.3-0.3-0.5-0.7-0.5-1.1c0-0.4,0.2-0.8,0.5-1.1c0.3-0.3,0.7-0.5,1.1-0.5
		s0.8,0.2,1.1,0.5c0.3,0.3,0.5,0.7,0.5,1.1c0,0.4-0.2,0.8-0.5,1.1C-53.6,9.2-53.9,9.3-54.4,9.3z M-53.1,24.1h-2.5V12h2.5L-53.1,24.1
		z"/>
</g>
<text id="XMLID_00000119833893340521916360000005957214291147793836_" transform="matrix(1 0 0 1 -167.276 71.3249)" class="st0" style="font-family:'Kollektif'; font-size:25.3497px;">kloskowski</text>
<path class="st0" d="M0.3,29.7l7-9.6l7.3-9.9l7.3-9.9h12.6l-7.3,9.9h12.6l7.3-9.9h12.6L52.5,10c0,0-0.1,0-0.1,0
	C32.4,10,14.2,17.5,0.3,29.7z M45.5,19.8H32.9l-7.3,9.9h12.6L45.5,19.8z"/>
</svg>
