<?xml version="1.0" encoding="utf-8"?>
<!-- Generator: Adobe Illustrator 27.8.1, SVG Export Plug-In . SVG Version: 6.00 Build 0)  -->
<svg version="1.1" id="Layer_1" xmlns="http://www.w3.org/2000/svg" xmlns:xlink="http://www.w3.org/1999/xlink" x="0px" y="0px"
	 viewBox="0 0 60 30" style="enable-background:new 0 0 60 30;" xml:space="preserve">
<style type="text/css">
	.st0{fill:#231F20;}
	.st1{fill:#FFFFFF;}
</style>
<g>
	<path class="st0" d="M-32-11.6c-1,0-1.8-0.8-1.8-1.8v-12c0-1,0.8-1.8,1.8-1.8h12c1,0,1.8,0.8,1.8,1.8v12c0,1-0.8,1.8-1.8,1.8H-32z"
		/>
	<path class="st1" d="M-20-26.9c0.8,0,1.5,0.7,1.5,1.5v12c0,0.8-0.7,1.5-1.5,1.5h-12c-0.8,0-1.5-0.7-1.5-1.5v-12
		c0-0.8,0.7-1.5,1.5-1.5H-20 M-20-27.4h-12c-1.1,0-2,0.9-2,2v12c0,1.1,0.9,2,2,2h12c1.1,0,2-0.9,2-2v-12C-18-26.5-18.9-27.4-20-27.4
		L-20-27.4z"/>
</g>
<path class="st1" d="M59.7,0.2L52.6,10h-0.1c-20,0-38.2,7.4-52.1,19.7l7-9.6l7.3-9.9L22,0.3h12.6l-7.3,9.9h12.6l7.3-9.9h12.5V0.2z
	 M25.7,29.8h12.6l7.3-9.9H32.9C32.9,19.8,25.7,29.8,25.7,29.8z"/>
<path class="st1" d="M-20-22.4l-1.4,2l0,0c-4.1,0-7.8,1.5-10.6,4l1.4-2l1.5-2l1.5-2h2.5l-1.5,2h2.6l1.5-2H-20L-20-22.4z M-26.9-16.4
	h2.5l1.5-2h-2.5L-26.9-16.4z"/>
</svg>
